OFF
78 48 0
0.013 0.00352153 0.04
-0.013 0.00352153 0.04
-0.013 -0.00387847 0.04
0.013 -0.00387847 0.04
-0.013 -0.00387847 0.04
-0.013 -0.00387847 0.02
0.013 -0.00387847 0.04
0.013 0.00352153 0.04
-0.013 0.0180215 0.008
-0.013 0.00352153 0.04
0.013 0.0180215 0.008
0.013 0.0180215 -0.00217087
-0.013 0.0180215 -0.00217087
-0.013 0.0180215 0.008
0.013 0.0180215 0.008
0.013 0.0136816 -0.0137733
-0.013 0.0136816 -0.0137733
-0.013 0.0180215 -0.00217087
0.013 0.0180215 -0.00217087
0.013 0.00952153 -0.015
-0.013 0.00952153 -0.015
-0.013 0.0136816 -0.0137733
0.013 0.0136816 -0.0137733
0.013 -0.00297847 -0.0022
-0.013 -0.00297847 -0.0022
-0.013 0.00952153 -0.015
0.013 0.00952153 -0.015
0.013 -0.00297847 -0.0022
-0.013 -0.00367847 0.00037
-0.013 -0.00297847 -0.0022
0.013 -0.00367847 0.00037
0.013 -0.00367847 0.00037
-0.013 -0.00197847 0.0031
-0.013 -0.00367847 0.00037
0.013 -0.00197847 0.0031
0.013 -0.00197847 0.0031
-0.013 2.15282e-05 0.0037
-0.013 -0.00197847 0.0031
0.013 2.15282e-05 0.0037
0.013 2.15282e-05 0.0168063
-0.013 2.15282e-05 0.0168063
-0.013 2.15282e-05 0.0037
0.013 2.15282e-05 0.0037
0.013 2.15282e-05 0.0168063
-0.013 -0.000778472 0.02
-0.013 2.15282e-05 0.0168063
0.013 -0.000778472 0.02
0.013 -0.00387847 0.02
-0.013 -0.00387847 0.02
-0.013 -0.000778472 0.02
0.013 -0.000778472 0.02
0.013 -0.00387847 0.02
-0.013 -0.00387847 0.04
-0.013 -0.000778472 0.02
-0.013 -0.00387847 0.02
-0.013 2.15282e-05 0.0168063
-0.013 0.0180215 0.008
-0.013 0.00352153 0.04
-0.013 0.0136816 -0.0137733
-0.013 0.0180215 -0.00217087
-0.013 -0.00297847 -0.0022
-0.013 0.00952153 -0.015
-0.013 -0.00197847 0.0031
-0.013 -0.00367847 0.00037
-0.013 2.15282e-05 0.0037
0.013 -0.00387847 0.02
0.013 0.00352153 0.04
0.013 -0.00387847 0.04
0.013 0.0180215 -0.00217087
0.013 0.0180215 0.008
0.013 0.00952153 -0.015
0.013 0.0136816 -0.0137733
0.013 -0.00367847 0.00037
0.013 -0.00297847 -0.0022
0.013 2.15282e-05 0.0037
0.013 -0.00197847 0.0031
0.013 -0.000778472 0.02
0.013 2.15282e-05 0.0168063
3  0 1 2
3  3 4 5
3  0 2 6
3  7 8 9
3  7 10 8
3  11 12 13
3  14 11 13
3  15 16 17
3  18 15 17
3  19 20 21
3  22 19 21
3  23 24 25
3  26 23 25
3  27 28 29
3  27 30 28
3  31 32 33
3  31 34 32
3  35 36 37
3  35 38 36
3  39 40 41
3  42 39 41
3  43 44 45
3  43 46 44
3  47 48 49
3  50 47 49
3  51 3 5
3  52 53 54
3  52 55 53
3  56 52 57
3  58 56 59
3  60 58 61
3  62 60 63
3  64 60 62
3  60 56 58
3  56 55 52
3  64 56 60
3  55 56 64
3  65 66 67
3  66 68 69
3  68 70 71
3  70 72 73
3  72 74 75
3  70 74 72
3  66 70 68
3  76 66 65
3  70 77 74
3  77 66 76
3  66 77 70
